<svg id="圖層_1" data-name="圖層 1" xmlns="http://www.w3.org/2000/svg" viewBox="0 0 220.08 123.18"><defs><style>.cls-1{fill:#4c4a49;stroke:#4c4a49;stroke-miterlimit:10;}</style></defs><path class="cls-1" d="M264.45,406.94H190.09v-2.65l59.52-90.5H194.84l2.59-3.85h69.71L206.08,403h61.06Z" transform="translate(-189.59 -284.33)"/><path class="cls-1" d="M407.14,332,405,333.41c-5.58-7.77-10.7-13.83-15.36-16.42a30.83,30.83,0,0,0-15.74-4c-13.65,0-22.63,6.63-28.11,19.88-2.91,6.92-4.36,16.39-4.36,26.69,0,17.62,5.46,30.63,16.39,37.28a33.1,33.1,0,0,0,18.09,5,29.65,29.65,0,0,0,17.75-5.32c4-2.77,8.4-8.34,13.2-15l2.15,1.39C399.92,399,387.51,407,370.72,407c-15.54,0-27-5.75-35.52-17.28q-9.54-12.87-9.54-30.3a54.12,54.12,0,0,1,5.95-25.24,45.72,45.72,0,0,1,17.7-18.81,44.64,44.64,0,0,1,23.48-6.44,32.73,32.73,0,0,1,17.89,4.78Q400.07,319.5,407.14,332Z" transform="translate(-189.59 -284.33)"/><polygon class="cls-1" points="113.11 118.76 113.11 29.46 120.99 29.46 123.42 25.61 91.5 25.61 89.06 29.46 99.38 29.46 99.38 118.76 90.29 118.76 87.6 122.61 122.21 122.61 124.89 118.76 113.11 118.76"/><path class="cls-1" d="M295.85,284.83A8.18,8.18,0,1,0,304,293,8.19,8.19,0,0,0,295.85,284.83Zm0,12.51a4.34,4.34,0,1,1,4.33-4.33A4.33,4.33,0,0,1,295.85,297.34Z" transform="translate(-189.59 -284.33)"/></svg>